<?xml version="1.0" encoding="UTF-8" standalone="no"?>
<!DOCTYPE svg PUBLIC "-//W3C//DTD SVG 1.1//EN" "http://www.w3.org/Graphics/SVG/1.1/DTD/svg11.dtd">
<svg width="100%" height="100%" viewBox="0 0 425 269" version="1.1" xmlns="http://www.w3.org/2000/svg" xmlns:xlink="http://www.w3.org/1999/xlink" xml:space="preserve" xmlns:serif="http://www.serif.com/" style="fill-rule:evenodd;clip-rule:evenodd;stroke-linejoin:round;stroke-miterlimit:2;">
    <g transform="matrix(4.16667,0,0,4.16667,-20.8333,-20.3682)">
        <g>
            <g transform="matrix(0.805535,0,0,0.879311,4.16317,4.06031)">
                <g transform="matrix(39.7873,0,0,39.7873,1,29.5)">
                    <path d="M0.196,-0L0.304,-0L0.304,-0.616L0.499,-0.616L0.499,-0.712L0.001,-0.712L0.001,-0.616L0.196,-0.616L0.196,-0Z" style="fill:rgb(95,95,95);fill-rule:nonzero;"/>
                </g>
                <g transform="matrix(39.7873,0,0,39.7873,20.8937,29.5)">
                    <path d="M0.075,-0L0.53,-0L0.53,-0.102L0.183,-0.102L0.183,-0.311L0.479,-0.311L0.479,-0.407L0.183,-0.407L0.183,-0.61L0.53,-0.61L0.53,-0.712L0.075,-0.712L0.075,-0Z" style="fill:rgb(95,95,95);fill-rule:nonzero;"/>
                </g>
                <g transform="matrix(39.7873,0,0,39.7873,43.0215,29.5)">
                    <path d="M0.441,-0.199C0.411,-0.134 0.366,-0.102 0.305,-0.102C0.28,-0.102 0.258,-0.107 0.24,-0.118C0.221,-0.127 0.206,-0.139 0.195,-0.154C0.181,-0.169 0.172,-0.189 0.167,-0.214C0.162,-0.239 0.159,-0.286 0.159,-0.356C0.159,-0.426 0.162,-0.474 0.167,-0.499C0.172,-0.523 0.181,-0.543 0.195,-0.558C0.206,-0.573 0.221,-0.585 0.24,-0.595C0.258,-0.604 0.28,-0.609 0.305,-0.61C0.34,-0.609 0.369,-0.599 0.393,-0.58C0.416,-0.56 0.432,-0.535 0.441,-0.507L0.555,-0.507C0.544,-0.566 0.516,-0.616 0.473,-0.657C0.43,-0.697 0.374,-0.717 0.305,-0.718C0.249,-0.717 0.202,-0.704 0.165,-0.678C0.127,-0.652 0.099,-0.623 0.082,-0.59C0.071,-0.573 0.063,-0.55 0.058,-0.522C0.053,-0.494 0.051,-0.439 0.051,-0.356C0.051,-0.275 0.053,-0.22 0.058,-0.191C0.061,-0.176 0.064,-0.163 0.068,-0.153C0.072,-0.143 0.077,-0.133 0.082,-0.122C0.099,-0.089 0.127,-0.06 0.165,-0.035C0.202,-0.009 0.249,0.005 0.305,0.006C0.367,0.006 0.421,-0.012 0.466,-0.047C0.51,-0.082 0.54,-0.133 0.555,-0.199L0.441,-0.199Z" style="fill:rgb(95,95,95);fill-rule:nonzero;"/>
                </g>
                <g transform="matrix(39.7873,0,0,39.7873,65.1493,29.5)">
                    <path d="M0.465,-0L0.573,-0L0.573,-0.712L0.465,-0.712L0.465,-0.407L0.183,-0.407L0.183,-0.712L0.075,-0.712L0.075,-0L0.183,-0L0.183,-0.311L0.465,-0.311L0.465,-0Z" style="fill:rgb(95,95,95);fill-rule:nonzero;"/>
                </g>
            </g>
            <g transform="matrix(0.659669,0,0,0.784321,14.2444,8.68649)">
                <g transform="matrix(51.6537,0,0,51.6537,20,77)">
                    <path d="M0.075,-0L0.375,-0C0.431,-0 0.478,-0.019 0.515,-0.056C0.553,-0.092 0.572,-0.141 0.573,-0.202C0.573,-0.239 0.563,-0.274 0.545,-0.305C0.525,-0.336 0.496,-0.356 0.457,-0.366L0.457,-0.368C0.478,-0.378 0.495,-0.389 0.509,-0.401C0.523,-0.412 0.534,-0.424 0.541,-0.437C0.556,-0.464 0.563,-0.492 0.562,-0.521C0.562,-0.578 0.544,-0.624 0.509,-0.659C0.474,-0.694 0.421,-0.711 0.351,-0.712L0.075,-0.712L0.075,-0ZM0.349,-0.316C0.389,-0.315 0.418,-0.305 0.437,-0.284C0.456,-0.263 0.465,-0.238 0.465,-0.209C0.465,-0.18 0.456,-0.156 0.437,-0.135C0.418,-0.114 0.389,-0.103 0.349,-0.102L0.183,-0.102L0.183,-0.316L0.349,-0.316ZM0.339,-0.616C0.378,-0.615 0.407,-0.605 0.426,-0.587C0.445,-0.567 0.454,-0.543 0.454,-0.514C0.454,-0.486 0.445,-0.462 0.426,-0.443C0.407,-0.422 0.378,-0.412 0.339,-0.412L0.183,-0.412L0.183,-0.616L0.339,-0.616Z" style="fill:rgb(95,95,95);fill-rule:nonzero;"/>
                </g>
                <g transform="matrix(51.6537,0,0,51.6537,51.5017,77)">
                    <path d="M0.075,-0L0.53,-0L0.53,-0.102L0.183,-0.102L0.183,-0.712L0.075,-0.712L0.075,-0Z" style="fill:rgb(95,95,95);fill-rule:nonzero;"/>
                </g>
                <g transform="matrix(51.6537,0,0,51.6537,80.229,77)">
                    <path d="M0.051,-0.356C0.051,-0.275 0.053,-0.22 0.058,-0.191C0.061,-0.176 0.064,-0.163 0.068,-0.153C0.072,-0.143 0.077,-0.133 0.082,-0.122C0.099,-0.089 0.127,-0.06 0.165,-0.035C0.202,-0.009 0.249,0.005 0.305,0.006C0.362,0.005 0.409,-0.009 0.447,-0.035C0.484,-0.06 0.511,-0.089 0.528,-0.122C0.54,-0.139 0.548,-0.162 0.553,-0.191C0.557,-0.22 0.559,-0.275 0.559,-0.356C0.559,-0.439 0.557,-0.494 0.553,-0.522C0.548,-0.55 0.54,-0.573 0.528,-0.59C0.511,-0.623 0.484,-0.652 0.447,-0.678C0.409,-0.704 0.362,-0.717 0.305,-0.718C0.249,-0.717 0.202,-0.704 0.165,-0.678C0.127,-0.652 0.099,-0.623 0.082,-0.59C0.071,-0.573 0.063,-0.55 0.058,-0.522C0.053,-0.494 0.051,-0.439 0.051,-0.356ZM0.159,-0.356C0.159,-0.426 0.162,-0.474 0.167,-0.499C0.172,-0.523 0.181,-0.543 0.195,-0.558C0.206,-0.573 0.221,-0.585 0.24,-0.595C0.258,-0.604 0.28,-0.609 0.305,-0.61C0.331,-0.609 0.353,-0.604 0.372,-0.595C0.39,-0.585 0.404,-0.573 0.415,-0.558C0.429,-0.543 0.439,-0.523 0.444,-0.499C0.449,-0.474 0.451,-0.426 0.451,-0.356C0.451,-0.286 0.449,-0.239 0.444,-0.214C0.439,-0.189 0.429,-0.169 0.415,-0.154C0.404,-0.139 0.39,-0.127 0.372,-0.118C0.353,-0.107 0.331,-0.102 0.305,-0.102C0.28,-0.102 0.258,-0.107 0.24,-0.118C0.221,-0.127 0.206,-0.139 0.195,-0.154C0.181,-0.169 0.172,-0.189 0.167,-0.214C0.162,-0.239 0.159,-0.286 0.159,-0.356Z" style="fill:rgb(95,95,95);fill-rule:nonzero;"/>
                </g>
                <g transform="matrix(51.6537,0,0,51.6537,111.731,77)">
                    <path d="M0.306,-0.29L0.451,-0.29L0.451,-0.253C0.451,-0.208 0.437,-0.172 0.409,-0.145C0.382,-0.116 0.347,-0.102 0.305,-0.102C0.28,-0.102 0.258,-0.107 0.24,-0.118C0.221,-0.127 0.206,-0.139 0.195,-0.154C0.181,-0.169 0.172,-0.189 0.167,-0.214C0.162,-0.239 0.159,-0.286 0.159,-0.356C0.159,-0.426 0.162,-0.474 0.167,-0.499C0.172,-0.523 0.181,-0.543 0.195,-0.558C0.206,-0.573 0.221,-0.585 0.24,-0.595C0.258,-0.604 0.28,-0.609 0.305,-0.61C0.34,-0.609 0.369,-0.599 0.393,-0.58C0.416,-0.56 0.432,-0.535 0.441,-0.507L0.555,-0.507C0.544,-0.566 0.516,-0.616 0.473,-0.657C0.43,-0.697 0.374,-0.717 0.305,-0.718C0.249,-0.717 0.202,-0.704 0.165,-0.678C0.127,-0.652 0.099,-0.623 0.082,-0.59C0.071,-0.573 0.063,-0.55 0.058,-0.522C0.053,-0.494 0.051,-0.439 0.051,-0.356C0.051,-0.275 0.053,-0.22 0.058,-0.191C0.061,-0.176 0.064,-0.163 0.068,-0.153C0.072,-0.143 0.077,-0.133 0.082,-0.122C0.099,-0.089 0.127,-0.06 0.165,-0.035C0.202,-0.009 0.249,0.005 0.305,0.006C0.378,0.005 0.438,-0.02 0.486,-0.068C0.533,-0.116 0.558,-0.176 0.559,-0.247L0.559,-0.392L0.306,-0.392L0.306,-0.29Z" style="fill:rgb(95,95,95);fill-rule:nonzero;"/>
                </g>
            </g>
        </g>
    </g>
</svg>
